<svg width="1657" height="690" viewBox="0 0 1657 690" fill="none" xmlns="http://www.w3.org/2000/svg">
    <g clip-path="url(#clip0)">
        <path
            d="M237.319 250C242.672 244.967 245.987 237.966 245.987 230.229C245.987 214.9 232.953 202.468 216.881 202.468C214.274 202.468 211.743 202.806 209.338 203.422C209.351 203.108 209.364 202.794 209.364 202.468C209.364 184.532 194.127 170 175.322 170C159.705 170 146.557 180.03 142.545 193.693C141.811 193.597 141.065 193.524 140.293 193.524C131.826 193.524 124.891 199.74 124.195 207.646C124.17 207.646 124.145 207.646 124.132 207.646C108.592 207.646 96 219.656 96 234.478C96 240.272 97.9362 245.619 101.201 250.012H237.319V250Z"
            fill="#CFF1FC" />
    </g>
    <g clip-path="url(#clip1)">
        <path
            d="M1656.06 679C1656.06 678.783 1656.09 678.58 1656.09 678.363C1656.09 665.206 1645.12 654.542 1631.58 654.542C1631.06 654.542 1630.55 654.569 1630.05 654.596C1632.25 650.843 1633.52 646.493 1633.52 641.859C1633.52 627.659 1621.67 616.154 1607.07 616.154C1605.67 616.154 1604.29 616.263 1602.95 616.466C1603.57 614.095 1603.89 611.602 1603.89 609.041C1603.89 592.144 1589.79 578.444 1572.4 578.444C1568.03 578.444 1563.86 579.312 1560.06 580.883C1554.91 568.065 1542.09 559 1527.1 559C1507.58 559 1491.74 574.366 1491.72 593.336C1486.79 587.686 1479.46 584.108 1471.25 584.108C1456.44 584.108 1444.43 595.775 1444.43 610.165C1444.43 612.726 1444.82 615.206 1445.54 617.55C1441.17 609.772 1432.68 604.501 1422.92 604.501C1408.7 604.501 1397.17 615.707 1397.17 629.528C1397.17 631.859 1397.5 634.122 1398.12 636.263C1390.14 636.656 1383.46 641.791 1380.98 648.824C1376.13 641.249 1367.48 636.209 1357.62 636.209C1352.87 636.209 1348.39 637.388 1344.49 639.447C1344.23 626.534 1333.38 616.154 1320.03 616.154C1310.61 616.154 1302.44 621.331 1298.34 628.919C1294.04 625.653 1288.63 623.688 1282.76 623.688C1268.79 623.688 1257.47 634.691 1257.47 648.268C1257.47 649.135 1257.51 649.989 1257.61 650.843C1251.32 653.919 1247 660.233 1247 667.564C1247 671.873 1248.52 675.843 1251.04 679H1656.06Z"
            fill="#007991" />
    </g>
    <path
        d="M1344 680C1338.41 677.206 1344 664 1344 664H1376C1376 664 1389.21 671.617 1392 680C1397.93 697.783 1355 685.5 1344 680Z"
        fill="#242947" />
    <path d="M1381 667L1377 671" stroke="white" stroke-linecap="round" />
    <path d="M1383 669L1379 673" stroke="white" stroke-linecap="round" />
    <path
        d="M1288 680C1293.59 677.206 1288 664 1288 664H1256C1256 664 1242.79 671.617 1240 680C1234.07 697.783 1277 685.5 1288 680Z"
        fill="#242947" />
    <path d="M1251 667L1255 671" stroke="white" stroke-linecap="round" />
    <path d="M1249 669L1253 673" stroke="white" stroke-linecap="round" />
    <path
        d="M1344 664C1360.64 668.625 1367.95 668.968 1376 664C1387.42 605.461 1392.5 608.644 1392.5 556.5C1392.5 520 1408 512 1408 432H1248C1215.5 538 1219 545.5 1256 664C1260.74 669.49 1271.47 668.048 1288 664C1314 593.5 1258 566.5 1319 495C1327.5 571 1326.5 592.5 1344 664Z"
        fill="#00468A" />
    <path d="M1319 495L1317.5 467" stroke="#0F0F22" stroke-linecap="round" />
    <path
        d="M1400 400C1440 400 1448 366 1448 328.5C1448 328.5 1413.33 293.333 1400 320C1386.67 346.667 1368 400 1400 400Z"
        fill="#FFE2C2" />
    <path
        d="M1205 232C1205 250 1219.17 271.5 1224 296.5C1224 296.5 1280 319 1272.5 328C1265 337 1250.8 360 1216 360C1172.5 360 1184 260.5 1184 246C1184 231.5 1178.7 235.674 1167 226.5C1153.17 215.656 1151 216 1150 202C1148.96 187.502 1154.5 188 1178.5 200C1179 194 1205 204 1205 232Z"
        fill="#FFE2C2" />
    <path
        d="M1376 224H1296C1258.67 253.9 1250.71 310.116 1248 432C1306.11 439.214 1344.22 439.275 1408 432C1408.14 332.661 1412.75 279.222 1376 224Z"
        fill="#FFA62B" />
    <path
        d="M1448 328C1448 271.5 1435.5 253.5 1376 224C1388.51 258.454 1384 283.5 1384 328L1384.33 327.959C1420.65 323.487 1432.53 322.025 1448 328Z"
        fill="#FFA62B" />
    <path
        d="M1224 296C1239 261.5 1236.5 253.5 1296 224C1283.49 258.454 1288 283.5 1288 328C1248.5 328 1234 316 1224 296Z"
        fill="#FFA62B" />
    <path d="M1178.5 200C1179 204.5 1186 210.5 1189.5 213.5" stroke="#C27000" stroke-linecap="round" />
    <path
        d="M1369.5 161C1369.1 172.2 1350 202.5 1327.5 200C1326 183.167 1317.7 150 1307.5 150C1295 150 1294.95 126.265 1305.5 119C1315.48 112.124 1324.48 116.02 1340.5 127C1344.81 129.952 1354.5 126 1361 134C1364.85 138.737 1363 144.833 1361 146C1364 146.333 1369.9 149.8 1369.5 161Z"
        fill="#0F0F22" />
    <path
        d="M1346 184H1320C1315.88 206.064 1308.78 215.389 1296 224C1317.55 243.851 1341.77 245.379 1376 224C1360.57 214.398 1346.17 204.843 1346 184Z"
        fill="#FFE2C2" />
    <path d="M1339 182H1321C1319.24 191.401 1315.52 200.398 1313 206C1313 206 1339 204 1339 182Z" fill="#C27000" />
    <path
        d="M1350.85 173.357C1355.99 161.364 1350.89 147.444 1339.22 141.609C1325.2 134.6 1308.29 142.284 1304.35 157.452L1300.68 171.553C1297.72 182.972 1303.66 194.824 1314.59 199.276C1326.47 204.119 1340.05 198.546 1345.11 186.747L1350.85 173.357Z"
        fill="#FFE2C2" />
    <ellipse rx="2" ry="2.5" transform="matrix(-0.965926 -0.258819 -0.258819 0.965926 1323.42 165.074)"
        fill="#0F0F22" />
    <path d="M1322 159.5C1325 159 1327.14 159.67 1329.5 161.5" stroke="#0F0F22" stroke-linecap="round" />
    <ellipse rx="2" ry="2.5" transform="matrix(-0.965926 -0.258819 -0.258819 0.965926 1307.97 160.932)"
        fill="#0F0F22" />
    <path d="M1308 154.5C1309.5 154.5 1311 155 1312 156.5" stroke="#0F0F22" stroke-linecap="round" />
    <path d="M1314.5 160C1311.5 165.5 1306 170 1312 173.5" stroke="#C27000" stroke-linecap="round" />
    <path d="M1320.5 177C1317 181.5 1312 180 1310.5 178.5" stroke="#C27000" stroke-linecap="round" />
    <path
        d="M1343 151.5C1342.5 147 1316.5 150 1307.5 150V136H1360V172.5C1353.83 172.167 1338.8 171.6 1338 168C1337 163.5 1343.5 156 1343 151.5Z"
        fill="#0F0F22" />
    <ellipse rx="9.5" ry="8.5" transform="matrix(-1 0 0 1 1348.5 176.5)" fill="#FFE2C2" />
    <path d="M1353 175C1351.5 172 1344.5 172 1342.5 176C1346.5 176.5 1347 179 1347 179" stroke="#C27000"
        stroke-linecap="round" stroke-linejoin="round" />
    <path
        d="M766.278 679.869C791.3 651.342 762.303 621.002 730.542 636.31C727.182 629.945 720.884 626.957 712.48 628.048C717.796 590.096 661.574 575.732 637.502 603.002C621.213 588.266 594.236 593.903 587.225 615.677C582.932 616.21 578.952 617.71 575.536 619.973C573.646 605.059 558.721 594.032 542.948 596.701C530.903 566.171 486.133 572.434 486.046 604.17C473.128 591.63 450.747 594.876 441.977 610.226C433.837 607.224 424.506 608.295 417.336 613.023C420.586 566.53 369.185 551.682 341.051 588.673C305.757 563.523 270.329 567.114 245.962 593.735C247.191 574.046 221.808 564.959 206.764 576.289C202.554 549.238 174.058 539.823 150.65 558.841C166.356 514.063 97.8936 503.98 96.0351 549.195C96.0351 549.21 96.0351 549.224 96.0351 549.238C58.5325 536.95 36.9678 558.841 45.6388 588.269C24.5435 590.357 11.3996 611.333 17.2695 629.853C1.17054 637.205 -5.24569 655.911 6.07032 679.854H766.278V679.869Z"
        fill="#007991" />
    <g clip-path="url(#clip2)">
        <path
            d="M1560.8 80C1565.56 75.5692 1568.57 69.1231 1568.57 61.9231C1568.57 48.5385 1558.25 37.6923 1545.52 37.6923C1544.16 37.6923 1542.84 37.8462 1541.54 38.0769C1541.67 36.8615 1541.73 35.6154 1541.73 34.3538C1541.73 15.3846 1527.09 0 1509.04 0C1490.99 0 1476.35 15.3846 1476.35 34.3538C1476.35 35.6 1476.41 36.8154 1476.54 38.0308C1475.42 37.8154 1474.25 37.6923 1473.06 37.6923C1464.38 37.6923 1457 43.4923 1454.18 51.5846C1450.59 48.6769 1446.11 46.9231 1441.22 46.9231C1429.5 46.9231 1420 56.9077 1420 69.2308C1420 73.1385 1420.97 76.8154 1422.65 80H1560.8Z"
            fill="#CFF1FC" />
    </g>
    <defs>
        <clipPath id="clip0">
            <rect width="150" height="80" fill="white" transform="translate(96 170)" />
        </clipPath>
        <clipPath id="clip1">
            <rect width="409.091" height="120" fill="white" transform="translate(1247 559)" />
        </clipPath>
        <clipPath id="clip2">
            <rect width="148.571" height="80" fill="white" transform="translate(1420)" />
        </clipPath>
    </defs>
</svg>