<svg width="1471" height="161" viewBox="0 0 1471 161" fill="none" xmlns="http://www.w3.org/2000/svg">
<path d="M766.278 160.869C791.3 132.342 762.303 102.003 730.542 117.31C727.182 110.946 720.884 107.957 712.48 109.048C717.796 71.0956 661.574 56.7319 637.502 84.0025C621.213 69.2661 594.236 74.9032 587.225 96.6766C582.932 97.2101 578.952 98.7096 575.536 100.973C573.646 86.0591 558.721 75.0326 542.948 77.7016C530.903 47.1708 486.133 53.434 486.046 85.1704C473.128 72.6298 450.747 75.8756 441.977 91.2263C433.837 88.2236 424.506 89.2954 417.336 94.0235C420.586 47.5305 369.185 32.6817 341.051 69.6729C305.757 44.5227 270.329 48.1137 245.962 74.7354C247.191 55.0466 221.808 45.9591 206.764 57.2888C202.554 30.2385 174.058 20.8227 150.65 39.8414C166.356 -4.93716 97.8936 -15.0196 96.0351 30.1953C96.0351 30.2097 96.0351 30.2241 96.0351 30.2385C58.5325 17.9499 36.9678 39.8414 45.6388 69.2692C24.5435 71.357 11.3996 92.3334 17.2695 110.853C1.17054 118.205 -5.24569 136.911 6.07032 160.854H766.278V160.869Z" fill="#007991"/>
<g clip-path="url(#clip0)">
<path d="M1470.67 160C1470.67 159.855 1470.69 159.72 1470.69 159.575C1470.69 150.804 1460.29 143.695 1447.46 143.695C1446.97 143.695 1446.48 143.713 1446.01 143.731C1448.1 141.229 1449.3 138.329 1449.3 135.239C1449.3 125.772 1438.07 118.103 1424.23 118.103C1422.91 118.103 1421.6 118.175 1420.33 118.311C1420.92 116.73 1421.22 115.068 1421.22 113.36C1421.22 102.096 1407.86 92.963 1391.38 92.963C1387.23 92.963 1383.28 93.5411 1379.69 94.589C1374.8 86.0434 1362.66 80 1348.45 80C1329.95 80 1314.94 90.2439 1314.92 102.891C1310.25 99.1238 1303.3 96.7389 1295.52 96.7389C1281.48 96.7389 1270.11 104.517 1270.11 114.11C1270.11 115.818 1270.48 117.471 1271.15 119.033C1267.02 113.848 1258.97 110.334 1249.72 110.334C1236.24 110.334 1225.31 117.805 1225.31 127.019C1225.31 128.573 1225.63 130.081 1226.21 131.509C1218.65 131.771 1212.32 135.194 1209.97 139.883C1205.37 134.833 1197.18 131.472 1187.84 131.472C1183.33 131.472 1179.09 132.258 1175.39 133.631C1175.14 125.023 1164.86 118.103 1152.21 118.103C1143.28 118.103 1135.54 121.554 1131.65 126.612C1127.58 124.435 1122.46 123.126 1116.89 123.126C1103.65 123.126 1092.92 130.461 1092.92 139.512C1092.92 140.09 1092.96 140.659 1093.06 141.229C1087.1 143.279 1083 147.489 1083 152.376C1083 155.248 1084.44 157.895 1086.83 160H1470.67Z" fill="#007991"/>
</g>
<defs>
<clipPath id="clip0">
<rect width="387.692" height="80" fill="white" transform="translate(1083 80)"/>
</clipPath>
</defs>
</svg>
