<svg width="1640" height="690" viewBox="0 0 1640 690" fill="none" xmlns="http://www.w3.org/2000/svg">
<g clip-path="url(#clip0)">
<path d="M221.319 250C226.672 244.967 229.987 237.966 229.987 230.229C229.987 214.9 216.953 202.468 200.881 202.468C198.274 202.468 195.743 202.806 193.338 203.422C193.351 203.108 193.364 202.794 193.364 202.468C193.364 184.532 178.127 170 159.322 170C143.705 170 130.557 180.03 126.545 193.693C125.811 193.597 125.065 193.524 124.293 193.524C115.826 193.524 108.891 199.74 108.195 207.646C108.17 207.646 108.145 207.646 108.132 207.646C92.5917 207.646 80 219.656 80 234.478C80 240.272 81.9362 245.619 85.2012 250.012H221.319V250Z" fill="#CFF1FC"/>
</g>
<g clip-path="url(#clip1)">
<path d="M1640.06 679C1640.06 678.783 1640.09 678.58 1640.09 678.363C1640.09 665.206 1629.12 654.542 1615.58 654.542C1615.06 654.542 1614.55 654.569 1614.05 654.596C1616.25 650.843 1617.52 646.493 1617.52 641.859C1617.52 627.659 1605.67 616.154 1591.07 616.154C1589.67 616.154 1588.29 616.263 1586.95 616.466C1587.57 614.095 1587.89 611.602 1587.89 609.041C1587.89 592.144 1573.79 578.444 1556.4 578.444C1552.03 578.444 1547.86 579.312 1544.06 580.883C1538.91 568.065 1526.09 559 1511.1 559C1491.58 559 1475.74 574.366 1475.72 593.336C1470.79 587.686 1463.46 584.108 1455.25 584.108C1440.44 584.108 1428.43 595.775 1428.43 610.165C1428.43 612.726 1428.82 615.206 1429.54 617.55C1425.17 609.772 1416.68 604.501 1406.92 604.501C1392.7 604.501 1381.17 615.707 1381.17 629.528C1381.17 631.859 1381.5 634.122 1382.12 636.263C1374.14 636.656 1367.46 641.791 1364.98 648.824C1360.13 641.249 1351.48 636.209 1341.62 636.209C1336.87 636.209 1332.39 637.388 1328.49 639.447C1328.23 626.534 1317.38 616.154 1304.03 616.154C1294.61 616.154 1286.44 621.331 1282.34 628.919C1278.04 625.653 1272.63 623.688 1266.76 623.688C1252.79 623.688 1241.47 634.691 1241.47 648.268C1241.47 649.135 1241.51 649.989 1241.61 650.843C1235.32 653.919 1231 660.233 1231 667.564C1231 671.873 1232.52 675.843 1235.04 679H1640.06Z" fill="#007991"/>
</g>
<path d="M1328 680C1322.41 677.206 1328 664 1328 664H1360C1360 664 1373.21 671.617 1376 680C1381.93 697.783 1339 685.5 1328 680Z" fill="#242947"/>
<path d="M1365 667L1361 671" stroke="white" stroke-linecap="round"/>
<path d="M1367 669L1363 673" stroke="white" stroke-linecap="round"/>
<path d="M1272 680C1277.59 677.206 1272 664 1272 664H1240C1240 664 1226.79 671.617 1224 680C1218.07 697.783 1261 685.5 1272 680Z" fill="#242947"/>
<path d="M1235 667L1239 671" stroke="white" stroke-linecap="round"/>
<path d="M1233 669L1237 673" stroke="white" stroke-linecap="round"/>
<path d="M1328 664C1344.64 668.625 1351.95 668.968 1360 664C1371.42 605.461 1376.5 608.644 1376.5 556.5C1376.5 520 1392 512 1392 432H1232C1199.5 538 1203 545.5 1240 664C1244.74 669.49 1255.47 668.048 1272 664C1298 593.5 1242 566.5 1303 495C1311.5 571 1310.5 592.5 1328 664Z" fill="#00468A"/>
<path d="M1303 495L1301.5 467" stroke="#0F0F22" stroke-linecap="round"/>
<path d="M1384 400C1424 400 1432 366 1432 328.5C1432 328.5 1397.33 293.333 1384 320C1370.67 346.667 1352 400 1384 400Z" fill="#FFE2C2"/>
<path d="M1189 232C1189 250 1203.17 271.5 1208 296.5C1208 296.5 1264 319 1256.5 328C1249 337 1234.8 360 1200 360C1156.5 360 1168 260.5 1168 246C1168 231.5 1162.7 235.674 1151 226.5C1137.17 215.656 1135 216 1134 202C1132.96 187.502 1138.5 188 1162.5 200C1163 194 1189 204 1189 232Z" fill="#FFE2C2"/>
<path d="M1360 224H1280C1242.67 253.9 1234.71 310.116 1232 432C1290.11 439.214 1328.22 439.275 1392 432C1392.14 332.661 1396.75 279.222 1360 224Z" fill="#FFA62B"/>
<path d="M1432 328C1432 271.5 1419.5 253.5 1360 224C1372.51 258.454 1368 283.5 1368 328L1368.33 327.959C1404.65 323.487 1416.53 322.025 1432 328Z" fill="#FFA62B"/>
<path d="M1208 296C1223 261.5 1220.5 253.5 1280 224C1267.49 258.454 1272 283.5 1272 328C1232.5 328 1218 316 1208 296Z" fill="#FFA62B"/>
<path d="M1162.5 200C1163 204.5 1170 210.5 1173.5 213.5" stroke="#C27000" stroke-linecap="round"/>
<path d="M1353.5 161C1353.1 172.2 1334 202.5 1311.5 200C1310 183.167 1301.7 150 1291.5 150C1279 150 1278.95 126.265 1289.5 119C1299.48 112.124 1308.48 116.02 1324.5 127C1328.81 129.952 1338.5 126 1345 134C1348.85 138.737 1347 144.833 1345 146C1348 146.333 1353.9 149.8 1353.5 161Z" fill="#0F0F22"/>
<path d="M1330 184H1304C1299.88 206.064 1292.78 215.389 1280 224C1301.55 243.851 1325.77 245.379 1360 224C1344.57 214.398 1330.17 204.843 1330 184Z" fill="#FFE2C2"/>
<path d="M1323 182H1305C1303.24 191.401 1299.52 200.398 1297 206C1297 206 1323 204 1323 182Z" fill="#C27000"/>
<path d="M1334.85 173.357C1339.99 161.364 1334.89 147.444 1323.22 141.609C1309.2 134.6 1292.29 142.284 1288.35 157.452L1284.68 171.553C1281.72 182.972 1287.66 194.824 1298.59 199.276C1310.47 204.119 1324.05 198.546 1329.11 186.747L1334.85 173.357Z" fill="#FFE2C2"/>
<ellipse rx="2" ry="2.5" transform="matrix(-0.965926 -0.258819 -0.258819 0.965926 1307.42 165.074)" fill="#0F0F22"/>
<path d="M1306 159.5C1309 159 1311.14 159.67 1313.5 161.5" stroke="#0F0F22" stroke-linecap="round"/>
<ellipse rx="2" ry="2.5" transform="matrix(-0.965926 -0.258819 -0.258819 0.965926 1291.97 160.932)" fill="#0F0F22"/>
<path d="M1292 154.5C1293.5 154.5 1295 155 1296 156.5" stroke="#0F0F22" stroke-linecap="round"/>
<path d="M1298.5 160C1295.5 165.5 1290 170 1296 173.5" stroke="#C27000" stroke-linecap="round"/>
<path d="M1304.5 177C1301 181.5 1296 180 1294.5 178.5" stroke="#C27000" stroke-linecap="round"/>
<path d="M1327 151.5C1326.5 147 1300.5 150 1291.5 150V136H1344V172.5C1337.83 172.167 1322.8 171.6 1322 168C1321 163.5 1327.5 156 1327 151.5Z" fill="#0F0F22"/>
<ellipse rx="9.5" ry="8.5" transform="matrix(-1 0 0 1 1332.5 176.5)" fill="#FFE2C2"/>
<path d="M1337 175C1335.5 172 1328.5 172 1326.5 176C1330.5 176.5 1331 179 1331 179" stroke="#C27000" stroke-linecap="round" stroke-linejoin="round"/>
<path d="M750.278 679.869C775.3 651.342 746.303 621.002 714.542 636.31C711.182 629.945 704.884 626.957 696.48 628.048C701.796 590.096 645.574 575.732 621.502 603.002C605.213 588.266 578.236 593.903 571.225 615.677C566.932 616.21 562.952 617.71 559.536 619.973C557.646 605.059 542.721 594.032 526.948 596.701C514.903 566.171 470.133 572.434 470.046 604.17C457.128 591.63 434.747 594.876 425.977 610.226C417.837 607.224 408.506 608.295 401.336 613.023C404.586 566.53 353.185 551.682 325.051 588.673C289.757 563.523 254.329 567.114 229.962 593.735C231.191 574.046 205.808 564.959 190.764 576.289C186.554 549.238 158.058 539.823 134.65 558.841C150.356 514.063 81.8936 503.98 80.0351 549.195C80.0351 549.21 80.0351 549.224 80.0351 549.238C42.5325 536.95 20.9678 558.841 29.6388 588.269C8.54352 590.357 -4.6004 611.333 1.26951 629.853C-14.8295 637.205 -21.2457 655.911 -9.92968 679.854H750.278V679.869Z" fill="#007991"/>
<g clip-path="url(#clip2)">
<path d="M1544.8 80C1549.56 75.5692 1552.57 69.1231 1552.57 61.9231C1552.57 48.5385 1542.25 37.6923 1529.52 37.6923C1528.16 37.6923 1526.84 37.8462 1525.54 38.0769C1525.67 36.8615 1525.73 35.6154 1525.73 34.3538C1525.73 15.3846 1511.09 0 1493.04 0C1474.99 0 1460.35 15.3846 1460.35 34.3538C1460.35 35.6 1460.41 36.8154 1460.54 38.0308C1459.42 37.8154 1458.25 37.6923 1457.06 37.6923C1448.38 37.6923 1441 43.4923 1438.18 51.5846C1434.59 48.6769 1430.11 46.9231 1425.22 46.9231C1413.5 46.9231 1404 56.9077 1404 69.2308C1404 73.1385 1404.97 76.8154 1406.65 80H1544.8Z" fill="#CFF1FC"/>
</g>
<defs>
<clipPath id="clip0">
<rect width="150" height="80" fill="white" transform="translate(80 170)"/>
</clipPath>
<clipPath id="clip1">
<rect width="409.091" height="120" fill="white" transform="translate(1231 559)"/>
</clipPath>
<clipPath id="clip2">
<rect width="148.571" height="80" fill="white" transform="translate(1404)"/>
</clipPath>
</defs>
</svg>
