<svg width="1640" height="694" viewBox="0 0 1640 694" fill="none" xmlns="http://www.w3.org/2000/svg">
<path d="M873.107 691.869C848.085 663.342 877.081 633.002 908.843 648.31C912.203 641.945 918.5 638.957 926.904 640.048C921.588 602.095 977.811 587.732 1001.88 615.002C1018.17 600.266 1045.15 605.903 1052.16 627.676C1056.45 628.21 1060.43 629.709 1063.85 631.973C1065.74 617.059 1080.66 606.032 1096.44 608.701C1108.48 578.171 1153.25 584.434 1153.34 616.17C1166.26 603.63 1188.64 606.875 1197.41 622.226C1205.55 619.224 1214.88 620.295 1222.05 625.023C1218.8 578.53 1270.2 563.682 1298.33 600.673C1333.63 575.523 1369.06 579.114 1393.42 605.735C1392.19 586.046 1417.58 576.959 1432.62 588.289C1436.83 561.238 1465.33 551.823 1488.74 570.841C1473.03 526.063 1541.49 515.98 1543.35 561.195C1543.35 561.21 1543.35 561.224 1543.35 561.238C1580.85 548.95 1602.42 570.841 1593.75 600.269C1614.84 602.357 1627.99 623.333 1622.12 641.853C1638.21 649.205 1644.63 667.911 1633.31 691.854H873.107V691.869Z" fill="#007991"/>
<path d="M1184 191C1184 171.118 1200.12 155 1220 155C1239.88 155 1256 171.118 1256 191V691H1184V191Z" fill="#E2E4E9"/>
<path d="M1272 171C1263.16 171 1256 178.163 1256 187V691H1432V211C1432 202.163 1424.84 195 1416 195C1407.16 195 1400 202.163 1400 211V219C1352.52 218.256 1328.23 212.509 1288 195V187C1288 178.163 1280.84 171 1272 171Z" fill="#E2E4E9"/>
<path d="M1168 171C1176.84 171 1184 178.163 1184 187V691H1008V211C1008 202.163 1015.16 195 1024 195C1032.84 195 1040 202.163 1040 211V219C1087.48 218.256 1111.77 212.509 1152 195V187C1152 178.163 1159.16 171 1168 171Z" fill="#E2E4E9"/>
<path d="M1352 251C1352 242.163 1359.16 235 1368 235C1376.84 235 1384 242.163 1384 251V299H1352V251Z" fill="#8A99A8"/>
<path d="M1352 331H1384V395H1352V331Z" fill="#8A99A8"/>
<path d="M1352 467H1384V531H1352V467Z" fill="#8A99A8"/>
<path d="M1352 603H1384V667H1352V603Z" fill="#8A99A8"/>
<path d="M1304 251C1304 242.163 1311.16 235 1320 235C1328.84 235 1336 242.163 1336 251V299H1304V251Z" fill="#8A99A8"/>
<path d="M1304 331H1336V395H1304V331Z" fill="#8A99A8"/>
<path d="M1304 467H1336V531H1304V467Z" fill="#8A99A8"/>
<path d="M1304 603H1336V667H1304V603Z" fill="#8A99A8"/>
<path d="M1200 255C1200 243.954 1208.95 235 1220 235C1231.05 235 1240 243.954 1240 255V315H1200V255Z" fill="#8A99A8"/>
<path d="M1200 347H1240V427H1200V347Z" fill="#8A99A8"/>
<path d="M1200 467H1240V547H1200V467Z" fill="#8A99A8"/>
<path d="M1200 603H1240V691H1200V603Z" fill="#8A99A8"/>
<path d="M1088 251C1088 242.163 1080.84 235 1072 235C1063.16 235 1056 242.163 1056 251V299H1088V251Z" fill="#8A99A8"/>
<path d="M1088 331H1056V395H1088V331Z" fill="#8A99A8"/>
<path d="M1088 467H1056V531H1088V467Z" fill="#8A99A8"/>
<path d="M1088 603H1056V667H1088V603Z" fill="#8A99A8"/>
<path d="M1136 251C1136 242.163 1128.84 235 1120 235C1111.16 235 1104 242.163 1104 251V299H1136V251Z" fill="#8A99A8"/>
<path d="M1136 331H1104V395H1136V331Z" fill="#8A99A8"/>
<path d="M1136 467H1104V531H1136V467Z" fill="#8A99A8"/>
<path d="M1136 603H1104V667H1136V603Z" fill="#8A99A8"/>
<g clip-path="url(#clip0)">
<path d="M408.063 691C408.063 690.783 408.091 690.58 408.091 690.363C408.091 677.206 397.118 666.542 383.579 666.542C383.063 666.542 382.547 666.569 382.045 666.596C384.248 662.843 385.517 658.493 385.517 653.859C385.517 639.659 373.665 628.154 359.067 628.154C357.673 628.154 356.292 628.263 354.954 628.466C355.567 626.095 355.888 623.602 355.888 621.041C355.888 604.144 341.791 590.444 324.404 590.444C320.026 590.444 315.857 591.312 312.065 592.883C306.906 580.065 294.092 571 279.103 571C259.583 571 243.743 586.366 243.716 605.336C238.794 599.686 231.46 596.108 223.247 596.108C208.439 596.108 196.434 607.775 196.434 622.165C196.434 624.726 196.825 627.206 197.536 629.55C193.172 621.772 184.68 616.501 174.92 616.501C160.698 616.501 149.167 627.707 149.167 641.528C149.167 643.859 149.502 646.122 150.115 648.263C142.14 648.656 135.461 653.791 132.979 660.824C128.127 653.249 119.482 648.209 109.625 648.209C104.87 648.209 100.394 649.388 96.4902 651.447C96.2253 638.534 85.3776 628.154 72.034 628.154C62.6085 628.154 54.4378 633.331 50.3385 640.919C46.0441 637.653 40.6341 635.688 34.7641 635.688C20.7931 635.688 9.47128 646.691 9.47128 660.268C9.47128 661.135 9.51311 661.989 9.61071 662.843C3.32236 665.919 -1 672.233 -1 679.564C-1 683.873 0.519799 687.843 3.0435 691H408.063Z" fill="#007991"/>
</g>
<path d="M694.501 406.805C698.007 350.705 744.529 307 800.739 307C856.948 307 903.47 350.705 906.976 406.805L913.253 507.234C917.31 572.134 865.766 627 800.739 627C735.711 627 684.168 572.135 688.224 507.234L694.501 406.805Z" fill="#F0F2F4"/>
<path d="M801.238 445V506.125M801.238 689.5V567.25M801.238 567.25L848.738 526.5M801.238 567.25V506.125M801.238 506.125L763.238 468.125" stroke="#2C3255" stroke-width="8" stroke-linecap="round"/>
<path d="M495.475 517.331C485.375 487.591 532.941 449.681 506.475 429.831C500.475 425.331 498.475 439.831 456.975 455.831C423.576 468.708 445.475 501.831 444.975 536.331C444.475 570.831 385.974 611.831 385.974 648.331C385.974 665.531 392.975 685.498 397.475 690.831H544.475C546.833 678.387 533.237 667.16 521.974 665.831C521.974 665.831 522.474 596.831 495.475 517.331Z" fill="#C27000"/>
<path d="M514.475 445.331C503.475 462.331 476.475 449.331 492.975 436.831C493.033 436.754 493.091 436.677 493.149 436.6C494.968 435.226 496.481 433.997 497.771 432.95C502.13 429.411 503.948 427.936 506.475 429.831C512.254 434.166 514.504 439.361 514.594 445.145C514.554 445.207 514.515 445.269 514.475 445.331Z" fill="#0F0F22"/>
<path d="M508.475 465.331C505.475 471.831 499.561 476.347 491.475 479.831" stroke="#0F0F22" stroke-opacity="0.85" stroke-linecap="round"/>
<ellipse cx="463.975" cy="472.698" rx="2" ry="2.5" transform="rotate(-90 463.975 472.698)" fill="#0F0F22"/>
<path d="M463.975 531.331C462.522 495.015 449.975 461.165 434.975 470.331C416.976 481.331 427.475 503.831 412.975 535.831C398.475 567.831 465.475 568.831 463.975 531.331Z" fill="#0F0F22" stroke="#0F0F22"/>
<path d="M442.475 597.331C465.374 609.183 471.389 625.246 466.975 670.331C478.525 673.255 484.975 677.831 484.975 690.331" stroke="#0F0F22" stroke-opacity="0.85" stroke-linecap="round"/>
<path d="M507.475 616.831C499.975 632.831 493.955 649.394 496.975 668.331C508.988 668.693 519.443 674.41 518.475 690.831" stroke="#0F0F22" stroke-opacity="0.85" stroke-linecap="round"/>
<path d="M364.975 628.331C353.911 651.477 359.934 691.955 396.975 690.831L392.975 682.331C371.475 679.331 362.675 659.41 364.975 628.331Z" fill="#0F0F22" stroke="#0F0F22"/>
<g clip-path="url(#clip1)">
<path d="M1708.95 80C1709.42 77.9776 1709.71 75.8685 1709.71 73.6728C1709.71 64.2398 1704.97 55.9769 1697.84 51.3109C1698.72 48.3351 1699.19 45.1715 1699.19 41.8924C1699.19 24.3409 1685.56 10.112 1668.74 10.112C1662.2 10.112 1656.15 12.2644 1651.18 15.9335C1647.2 12.3077 1642.01 10.112 1636.3 10.112C1624.8 10.112 1615.32 19.0249 1613.79 30.5959C1611.3 31.766 1609.11 33.4995 1607.36 35.6519C1602.57 31.4337 1596.39 28.8913 1589.65 28.8913C1577.29 28.8913 1566.85 37.3998 1563.38 49.1008C1562.97 49.0719 1562.56 49.043 1562.16 49.043C1559.2 49.043 1556.4 49.7508 1553.88 50.9931C1550.96 48.9707 1547.47 47.8007 1543.7 47.8007C1537.5 47.8007 1532.03 51.0076 1528.68 55.8902C1524.06 40.2456 1510.12 28.8913 1493.62 28.8913C1486.27 28.8913 1479.43 31.1593 1473.7 35.0307C1465.66 14.489 1446.3 0 1423.71 0C1394.97 0 1371.49 23.4308 1369.83 52.9866C1358.19 58.1148 1348.9 67.8512 1344 80H1708.95Z" fill="#CFF1FC"/>
</g>
<g clip-path="url(#clip2)">
<path d="M399.799 312C404.556 307.569 407.571 301.123 407.571 293.923C407.571 280.538 397.252 269.692 384.517 269.692C383.156 269.692 381.839 269.846 380.536 270.077C380.668 268.862 380.726 267.615 380.726 266.354C380.726 247.385 366.089 232 348.04 232C329.992 232 315.355 247.385 315.355 266.354C315.355 267.6 315.413 268.815 315.545 270.031C314.418 269.815 313.247 269.692 312.061 269.692C303.381 269.692 296.004 275.492 293.179 283.585C289.593 280.677 285.113 278.923 280.224 278.923C268.5 278.923 259 288.908 259 301.231C259 305.138 259.966 308.815 261.649 312H399.799Z" fill="#CFF1FC"/>
</g>
<circle cx="144" cy="120" r="40" fill="#FFA62B"/>
<defs>
<clipPath id="clip0">
<rect width="409.091" height="120" fill="white" transform="translate(-1 571)"/>
</clipPath>
<clipPath id="clip1">
<rect width="365.714" height="80" fill="white" transform="translate(1344)"/>
</clipPath>
<clipPath id="clip2">
<rect width="148.571" height="80" fill="white" transform="translate(259 232)"/>
</clipPath>
</defs>
</svg>
