<svg width="1593" height="1160" viewBox="0 0 1593 1160" fill="none" xmlns="http://www.w3.org/2000/svg">
<path d="M1583.28 1159.87C1608.3 1131.34 1579.3 1101 1547.54 1116.31C1544.18 1109.95 1537.88 1106.96 1529.48 1108.05C1534.8 1070.1 1478.57 1055.73 1454.5 1083C1438.21 1068.27 1411.24 1073.9 1404.22 1095.68C1399.93 1096.21 1395.95 1097.71 1392.54 1099.97C1390.65 1085.06 1375.72 1074.03 1359.95 1076.7C1347.9 1046.17 1303.13 1052.43 1303.05 1084.17C1290.13 1071.63 1267.75 1074.88 1258.98 1090.23C1250.84 1087.22 1241.51 1088.3 1234.34 1093.02C1237.59 1046.53 1186.19 1031.68 1158.05 1068.67C1122.76 1043.52 1087.33 1047.11 1062.96 1073.74C1064.19 1054.05 1038.81 1044.96 1023.76 1056.29C1019.55 1029.24 991.058 1019.82 967.65 1038.84C983.356 994.063 914.894 983.98 913.035 1029.2C913.035 1029.21 913.035 1029.22 913.035 1029.24C875.533 1016.95 853.968 1038.84 862.639 1068.27C841.544 1070.36 828.4 1091.33 834.27 1109.85C818.171 1117.21 811.754 1135.91 823.07 1159.85H1583.28V1159.87Z" fill="#007991"/>
<rect x="208" y="648" width="184" height="512" fill="#E2E4E9"/>
<rect x="264" y="568" width="72" height="80" fill="#F0F2F4"/>
<rect x="256" y="760" width="88" height="88" rx="44" fill="#8A99A8"/>
<rect x="392" y="936" width="576" height="40" fill="#F0F2F4"/>
<rect x="392" y="976" width="656" height="184" fill="#E2E4E9"/>
<rect x="872" y="1040" width="80" height="120" fill="#8A99A8"/>
<rect x="776" y="1040" width="80" height="120" fill="#8A99A8"/>
<rect x="680" y="1040" width="80" height="120" fill="#8A99A8"/>
<rect x="584" y="1040" width="80" height="120" fill="#8A99A8"/>
<rect x="488" y="1040" width="80" height="120" fill="#8A99A8"/>
<rect x="392" y="1040" width="80" height="120" fill="#8A99A8"/>
<rect width="576" height="40" transform="matrix(-1 0 0 1 208 936)" fill="#F0F2F4"/>
<rect width="656" height="184" transform="matrix(-1 0 0 1 208 976)" fill="#E2E4E9"/>
<rect width="80" height="120" transform="matrix(-1 0 0 1 16 1040)" fill="#8A99A8"/>
<rect width="80" height="120" transform="matrix(-1 0 0 1 112 1040)" fill="#8A99A8"/>
<rect width="80" height="120" transform="matrix(-1 0 0 1 208 1040)" fill="#8A99A8"/>

<g clip-path="url(#clip1)">
<path d="M1495.8 474C1500.56 469.569 1503.57 463.123 1503.57 455.923C1503.57 442.538 1493.25 431.692 1480.52 431.692C1479.16 431.692 1477.84 431.846 1476.54 432.077C1476.67 430.862 1476.73 429.615 1476.73 428.354C1476.73 409.385 1462.09 394 1444.04 394C1425.99 394 1411.35 409.385 1411.35 428.354C1411.35 429.6 1411.41 430.815 1411.54 432.031C1410.42 431.815 1409.25 431.692 1408.06 431.692C1399.38 431.692 1392 437.492 1389.18 445.585C1385.59 442.677 1381.11 440.923 1376.22 440.923C1364.5 440.923 1355 450.908 1355 463.231C1355 467.138 1355.97 470.815 1357.65 474H1495.8Z" fill="#CFF1FC"/>
</g>
<g clip-path="url(#clip2)">
<path d="M90.7724 80C86.0152 75.5692 82.9999 69.1231 82.9999 61.9231C82.9999 48.5385 93.3194 37.6923 106.054 37.6923C107.415 37.6923 108.733 37.8462 110.035 38.0769C109.904 36.8615 109.845 35.6154 109.845 34.3538C109.845 15.3846 124.483 0 142.531 0C160.579 0 175.217 15.3846 175.217 34.3538C175.217 35.6 175.158 36.8154 175.026 38.0308C176.153 37.8154 177.324 37.6923 178.51 37.6923C187.19 37.6923 194.567 43.4923 197.393 51.5846C200.979 48.6769 205.458 46.9231 210.347 46.9231C222.072 46.9231 231.571 56.9077 231.571 69.2308C231.571 73.1385 230.605 76.8154 228.922 80H90.7724Z" fill="#CFF1FC"/>
</g>
<defs>
<clipPath id="clip0">
<rect width="150" height="80" fill="white" transform="translate(680 664)"/>
</clipPath>
<clipPath id="clip1">
<rect width="148.571" height="80" fill="white" transform="translate(1355 394)"/>
</clipPath>
<clipPath id="clip2">
<rect width="148.571" height="80" fill="white" transform="matrix(-1 0 0 1 231.571 0)"/>
</clipPath>
</defs>
</svg>
