<svg width="249" height="40" viewBox="0 0 249 40" fill="none" xmlns="http://www.w3.org/2000/svg">
<path d="M15.5022 9.39289C15.7298 10.1704 15.9763 11.0521 16.2418 12.0382C16.5262 13.0053 16.8201 14.0104 17.1236 15.0533C17.4459 16.0963 17.7683 17.1393 18.0907 18.1822C18.413 19.2252 18.7259 20.1923 19.0293 21.0836C19.2759 20.1164 19.5224 19.064 19.7689 17.9262C20.0344 16.7884 20.2809 15.6127 20.5084 14.3991C20.736 13.1855 20.9541 11.9813 21.1627 10.7867C21.3902 9.57304 21.5988 8.40681 21.7884 7.288H26.3964C25.7327 10.5876 24.9647 13.9345 24.0924 17.3289C23.2391 20.7233 22.3099 23.947 21.3049 27H17.2373C16.5736 25.1796 15.9289 23.2738 15.3031 21.2827C14.6773 19.2726 14.061 17.2625 13.4542 15.2524C12.8474 17.2625 12.2406 19.2726 11.6338 21.2827C11.027 23.2738 10.3917 25.1796 9.728 27H5.66044C4.65541 23.947 3.71674 20.7233 2.84444 17.3289C1.99111 13.9345 1.23259 10.5876 0.568889 7.288H5.376C5.56563 8.40681 5.77422 9.57304 6.00178 10.7867C6.22933 11.9813 6.46637 13.1855 6.71289 14.3991C6.95941 15.6127 7.20593 16.7884 7.45245 17.9262C7.71793 19.064 7.98341 20.1164 8.24889 21.0836C8.59022 20.1544 8.92207 19.1683 9.24445 18.1253C9.56682 17.0824 9.8797 16.0394 10.1831 14.9964C10.4865 13.9535 10.7615 12.9484 11.008 11.9813C11.2735 11.0142 11.5105 10.1514 11.7191 9.39289H15.5022ZM32.6962 17.1298C32.6962 18.0969 32.81 18.9692 33.0376 19.7467C33.2841 20.5241 33.6254 21.1973 34.0616 21.7662C34.5167 22.3161 35.0666 22.7428 35.7113 23.0462C36.3561 23.3496 37.0956 23.5013 37.93 23.5013C38.7454 23.5013 39.4755 23.3496 40.1202 23.0462C40.7839 22.7428 41.3339 22.3161 41.77 21.7662C42.2251 21.1973 42.5664 20.5241 42.794 19.7467C43.0405 18.9692 43.1638 18.0969 43.1638 17.1298C43.1638 16.1627 43.0405 15.2904 42.794 14.5129C42.5664 13.7164 42.2251 13.0433 41.77 12.4933C41.3339 11.9244 40.7839 11.4883 40.1202 11.1849C39.4755 10.8815 38.7454 10.7298 37.93 10.7298C37.0956 10.7298 36.3561 10.891 35.7113 11.2133C35.0666 11.5167 34.5167 11.9529 34.0616 12.5218C33.6254 13.0717 33.2841 13.7449 33.0376 14.5413C32.81 15.3188 32.6962 16.1816 32.6962 17.1298ZM47.7433 17.1298C47.7433 18.8175 47.4873 20.3061 46.9753 21.5956C46.4823 22.8661 45.7996 23.9375 44.9273 24.8098C44.055 25.6631 43.0121 26.3079 41.7984 26.744C40.6038 27.1801 39.3143 27.3982 37.93 27.3982C36.5836 27.3982 35.3131 27.1801 34.1184 26.744C32.9238 26.3079 31.8808 25.6631 30.9896 24.8098C30.0983 23.9375 29.3967 22.8661 28.8847 21.5956C28.3727 20.3061 28.1167 18.8175 28.1167 17.1298C28.1167 15.4421 28.3821 13.963 28.9131 12.6924C29.4441 11.403 30.1552 10.3221 31.0464 9.44978C31.9567 8.57748 32.9996 7.92326 34.1753 7.48711C35.37 7.05096 36.6216 6.83289 37.93 6.83289C39.2764 6.83289 40.5469 7.05096 41.7416 7.48711C42.9362 7.92326 43.9792 8.57748 44.8704 9.44978C45.7617 10.3221 46.4633 11.403 46.9753 12.6924C47.4873 13.963 47.7433 15.4421 47.7433 17.1298ZM64.612 23.1884V27H51.4422V7.288H55.8796V23.1884H64.612ZM80.6967 27C79.4261 24.7434 78.0513 22.5153 76.5722 20.3156C75.0931 18.1159 73.5192 16.0394 71.8504 14.0862V27H67.47V7.288H71.0824C71.7082 7.91378 72.4004 8.68178 73.1589 9.592C73.9174 10.5022 74.6854 11.4788 75.4629 12.5218C76.2593 13.5458 77.0463 14.6172 77.8238 15.736C78.6013 16.8359 79.3313 17.8978 80.014 18.9218V7.288H84.4229V27H80.6967ZM88.97 7.288H93.4073V27H88.97V7.288Z" fill="white"/>
<path d="M113.599 13.0035C113.599 13.5475 113.663 14.0381 113.791 14.4755C113.929 14.9128 114.121 15.2915 114.367 15.6115C114.623 15.9208 114.932 16.1608 115.295 16.3315C115.657 16.5021 116.073 16.5875 116.543 16.5875C117.001 16.5875 117.412 16.5021 117.775 16.3315C118.148 16.1608 118.457 15.9208 118.703 15.6115C118.959 15.2915 119.151 14.9128 119.279 14.4755C119.417 14.0381 119.487 13.5475 119.487 13.0035C119.487 12.4595 119.417 11.9688 119.279 11.5315C119.151 11.0835 118.959 10.7048 118.703 10.3955C118.457 10.0755 118.148 9.83015 117.775 9.65948C117.412 9.48881 117.001 9.40348 116.543 9.40348C116.073 9.40348 115.657 9.49415 115.295 9.67548C114.932 9.84615 114.623 10.0915 114.367 10.4115C114.121 10.7208 113.929 11.0995 113.791 11.5475C113.663 11.9848 113.599 12.4701 113.599 13.0035ZM122.063 13.0035C122.063 13.9528 121.919 14.7901 121.631 15.5155C121.353 16.2301 120.969 16.8328 120.479 17.3235C119.988 17.8035 119.401 18.1661 118.719 18.4115C118.047 18.6568 117.321 18.7795 116.543 18.7795C115.785 18.7795 115.071 18.6568 114.399 18.4115C113.727 18.1661 113.14 17.8035 112.639 17.3235C112.137 16.8328 111.743 16.2301 111.455 15.5155C111.167 14.7901 111.023 13.9528 111.023 13.0035C111.023 12.0541 111.172 11.2221 111.471 10.5075C111.769 9.78215 112.169 9.17415 112.671 8.68348C113.183 8.19281 113.769 7.82481 114.431 7.57948C115.103 7.33415 115.807 7.21148 116.543 7.21148C117.3 7.21148 118.015 7.33415 118.687 7.57948C119.359 7.82481 119.945 8.19281 120.447 8.68348C120.948 9.17415 121.343 9.78215 121.631 10.5075C121.919 11.2221 122.063 12.0541 122.063 13.0035ZM126.639 16.5235C126.757 16.5341 126.89 16.5448 127.039 16.5555C127.199 16.5555 127.386 16.5555 127.599 16.5555C128.847 16.5555 129.77 16.2408 130.367 15.6115C130.975 14.9821 131.279 14.1128 131.279 13.0035C131.279 11.8408 130.991 10.9608 130.415 10.3635C129.839 9.76615 128.927 9.46748 127.679 9.46748C127.509 9.46748 127.333 9.47281 127.151 9.48348C126.97 9.48348 126.799 9.49415 126.639 9.51548V16.5235ZM133.855 13.0035C133.855 13.9635 133.706 14.8008 133.407 15.5155C133.109 16.2301 132.682 16.8221 132.127 17.2915C131.583 17.7608 130.917 18.1128 130.127 18.3475C129.338 18.5821 128.453 18.6995 127.471 18.6995C127.023 18.6995 126.501 18.6781 125.903 18.6355C125.306 18.6035 124.719 18.5288 124.143 18.4115V7.61148C124.719 7.50481 125.317 7.43548 125.935 7.40348C126.565 7.36081 127.103 7.33948 127.551 7.33948C128.501 7.33948 129.359 7.44615 130.127 7.65948C130.906 7.87281 131.573 8.20881 132.127 8.66748C132.682 9.12615 133.109 9.71281 133.407 10.4275C133.706 11.1421 133.855 12.0008 133.855 13.0035Z" fill="white"/>
<rect x="110.223" y="24.8889" width="24.8889" height="3.55556" fill="white"/>
<path d="M156.132 25.7484C157.668 25.7484 158.863 25.4735 159.716 24.9236C160.57 24.3547 160.996 23.4444 160.996 22.1929C160.996 21.4723 160.854 20.875 160.57 20.4009C160.304 19.9079 159.944 19.5001 159.489 19.1778C159.034 18.8364 158.512 18.552 157.924 18.3244C157.336 18.0779 156.72 17.8219 156.075 17.5564C155.26 17.2341 154.53 16.9022 153.885 16.5609C153.24 16.2196 152.69 15.8403 152.235 15.4231C151.78 14.987 151.429 14.4939 151.183 13.944C150.955 13.3941 150.842 12.7493 150.842 12.0098C150.842 10.3221 151.401 9.04207 152.52 8.16978C153.639 7.29748 155.194 6.86133 157.185 6.86133C157.716 6.86133 158.237 6.89926 158.749 6.97511C159.261 7.05096 159.735 7.15526 160.171 7.288C160.626 7.40178 161.034 7.53452 161.394 7.68622C161.774 7.83793 162.087 7.99911 162.333 8.16978L161.65 9.79111C161.101 9.41185 160.427 9.10844 159.631 8.88089C158.853 8.65333 158.01 8.53955 157.099 8.53955C156.474 8.53955 155.895 8.60592 155.364 8.73867C154.852 8.85244 154.407 9.05155 154.027 9.336C153.648 9.60148 153.345 9.94281 153.117 10.36C152.909 10.7772 152.804 11.2797 152.804 11.8676C152.804 12.4744 152.918 12.9864 153.146 13.4036C153.373 13.8207 153.686 14.181 154.084 14.4844C154.501 14.7879 154.985 15.0628 155.535 15.3093C156.085 15.5559 156.682 15.8119 157.327 16.0773C158.104 16.3997 158.834 16.7221 159.517 17.0444C160.219 17.3668 160.826 17.7461 161.338 18.1822C161.85 18.6184 162.257 19.1493 162.561 19.7751C162.864 20.4009 163.016 21.1689 163.016 22.0791C163.016 23.8616 162.39 25.1985 161.138 26.0898C159.906 26.981 158.228 27.4267 156.104 27.4267C155.345 27.4267 154.653 27.3793 154.027 27.2844C153.402 27.1896 152.842 27.0759 152.349 26.9431C151.856 26.7914 151.439 26.6397 151.098 26.488C150.756 26.3363 150.491 26.2036 150.301 26.0898L150.927 24.4116C151.117 24.5253 151.373 24.6581 151.695 24.8098C152.017 24.9615 152.397 25.1132 152.833 25.2649C153.269 25.3976 153.762 25.5114 154.312 25.6062C154.862 25.701 155.469 25.7484 156.132 25.7484ZM175.435 24.1556C175.245 23.6815 174.97 23.0557 174.61 22.2782C174.268 21.5007 173.88 20.6569 173.444 19.7467C173.007 18.8175 172.562 17.8693 172.107 16.9022C171.652 15.9161 171.215 14.9964 170.798 14.1431C170.381 13.2898 170.011 12.5407 169.689 11.896C169.367 11.2513 169.129 10.7961 168.978 10.5307C168.731 12.901 168.532 15.48 168.38 18.2676C168.248 21.0361 168.124 23.947 168.011 27H166.105C166.276 23.416 166.465 19.9837 166.674 16.7031C166.901 13.4225 167.176 10.2841 167.499 7.288H169.205C169.774 8.23615 170.381 9.336 171.026 10.5876C171.671 11.8201 172.306 13.1096 172.932 14.456C173.576 15.7834 174.193 17.1013 174.78 18.4098C175.387 19.6993 175.918 20.8655 176.373 21.9084C176.828 20.8655 177.35 19.6993 177.938 18.4098C178.545 17.1013 179.161 15.7834 179.787 14.456C180.431 13.1096 181.076 11.8201 181.721 10.5876C182.366 9.336 182.972 8.23615 183.541 7.288H185.163C185.485 10.2841 185.751 13.4225 185.959 16.7031C186.187 19.9837 186.386 23.416 186.556 27H184.594C184.48 23.947 184.347 21.0361 184.196 18.2676C184.063 15.48 183.873 12.901 183.627 10.5307C183.475 10.7961 183.238 11.2513 182.916 11.896C182.593 12.5407 182.223 13.2898 181.806 14.1431C181.389 14.9964 180.953 15.9161 180.498 16.9022C180.043 17.8693 179.597 18.8175 179.161 19.7467C178.725 20.6569 178.327 21.5007 177.966 22.2782C177.625 23.0557 177.359 23.6815 177.17 24.1556H175.435ZM208.892 17.1298C208.892 18.8175 208.645 20.3061 208.152 21.5956C207.659 22.885 206.986 23.9659 206.133 24.8382C205.299 25.6916 204.322 26.3363 203.203 26.7724C202.084 27.2086 200.899 27.4267 199.648 27.4267C198.396 27.4267 197.211 27.2086 196.092 26.7724C194.973 26.3363 193.987 25.6916 193.134 24.8382C192.299 23.9659 191.636 22.885 191.143 21.5956C190.65 20.3061 190.403 18.8175 190.403 17.1298C190.403 15.4421 190.65 13.963 191.143 12.6924C191.636 11.403 192.299 10.3316 193.134 9.47822C193.987 8.60592 194.973 7.9517 196.092 7.51555C197.211 7.07941 198.396 6.86133 199.648 6.86133C200.899 6.86133 202.084 7.07941 203.203 7.51555C204.322 7.9517 205.299 8.60592 206.133 9.47822C206.986 10.3316 207.659 11.403 208.152 12.6924C208.645 13.963 208.892 15.4421 208.892 17.1298ZM206.844 17.1298C206.844 15.8024 206.673 14.6172 206.332 13.5742C205.991 12.5123 205.507 11.6116 204.881 10.872C204.256 10.1324 203.497 9.57304 202.606 9.19378C201.733 8.79555 200.747 8.59644 199.648 8.59644C198.548 8.59644 197.552 8.79555 196.661 9.19378C195.789 9.57304 195.04 10.1324 194.414 10.872C193.788 11.6116 193.304 12.5123 192.963 13.5742C192.622 14.6172 192.451 15.8024 192.451 17.1298C192.451 18.4572 192.622 19.6519 192.963 20.7138C193.304 21.7567 193.788 22.648 194.414 23.3876C195.04 24.1271 195.789 24.696 196.661 25.0942C197.552 25.4924 198.548 25.6916 199.648 25.6916C200.747 25.6916 201.733 25.4924 202.606 25.0942C203.497 24.696 204.256 24.1271 204.881 23.3876C205.507 22.648 205.991 21.7567 206.332 20.7138C206.673 19.6519 206.844 18.4572 206.844 17.1298ZM225.515 17.6702H227.45V26.4596C227.089 26.6113 226.378 26.8009 225.316 27.0284C224.273 27.275 222.984 27.3982 221.448 27.3982C220.158 27.3982 218.964 27.1707 217.864 26.7156C216.764 26.2604 215.806 25.6062 214.991 24.7529C214.194 23.8806 213.569 22.8092 213.114 21.5387C212.658 20.2492 212.431 18.7796 212.431 17.1298C212.431 15.48 212.677 14.0199 213.17 12.7493C213.663 11.4599 214.327 10.3884 215.162 9.53511C216.015 8.66281 217.001 7.99911 218.12 7.544C219.239 7.08889 220.433 6.86133 221.704 6.86133C223.164 6.86133 224.368 7.02252 225.316 7.34489C226.264 7.6483 226.957 7.94222 227.393 8.22667L226.738 9.87644C226.207 9.49718 225.487 9.19378 224.577 8.96622C223.666 8.7197 222.68 8.59644 221.618 8.59644C220.632 8.59644 219.703 8.77659 218.831 9.13689C217.959 9.49718 217.2 10.0376 216.555 10.7582C215.911 11.4788 215.399 12.3701 215.019 13.432C214.659 14.4939 214.479 15.7265 214.479 17.1298C214.479 18.4382 214.631 19.6234 214.934 20.6853C215.237 21.7283 215.693 22.629 216.299 23.3876C216.925 24.1271 217.693 24.696 218.603 25.0942C219.514 25.4924 220.566 25.6916 221.761 25.6916C222.728 25.6916 223.534 25.6441 224.178 25.5493C224.842 25.4356 225.288 25.3313 225.515 25.2364V17.6702ZM239.061 27.4267C237.752 27.4267 236.633 27.2276 235.704 26.8293C234.794 26.4311 234.054 25.8812 233.486 25.1796C232.917 24.4779 232.499 23.6625 232.234 22.7333C231.987 21.7852 231.864 20.7707 231.864 19.6898V7.288H233.798V19.4338C233.798 20.5147 233.922 21.4533 234.168 22.2498C234.434 23.0273 234.794 23.672 235.249 24.184C235.704 24.696 236.254 25.0753 236.899 25.3218C237.544 25.5683 238.264 25.6916 239.061 25.6916C239.857 25.6916 240.578 25.5683 241.222 25.3218C241.867 25.0753 242.417 24.696 242.872 24.184C243.327 23.672 243.678 23.0273 243.925 22.2498C244.19 21.4533 244.323 20.5147 244.323 19.4338V7.288H246.257V19.6898C246.257 20.7707 246.124 21.7852 245.859 22.7333C245.612 23.6625 245.205 24.4779 244.636 25.1796C244.067 25.8812 243.318 26.4311 242.389 26.8293C241.478 27.2276 240.369 27.4267 239.061 27.4267Z" fill="white"/>
</svg>
